<?xml version="1.0" encoding="utf-8"?>
<!-- Generator: Adobe Illustrator 24.1.1, SVG Export Plug-In . SVG Version: 6.00 Build 0)  -->
<svg version="1.1" id="Layer_1" xmlns="http://www.w3.org/2000/svg" xmlns:xlink="http://www.w3.org/1999/xlink" x="0px" y="0px"
	 viewBox="0 0 64 64" style="enable-background:new 0 0 64 64;" xml:space="preserve">
<style type="text/css">
	.st0{fill:#777777;}
</style>
<g>
	<path class="st0" d="M27.07,29.83c1.57,0.57,3.24,0.87,4.93,0.87c1.7,0,3.35-0.29,4.92-0.86c0.01,0.08,0.01,0.15,0.01,0.23V56.7
		h-2.61c-4,0-7.25-3.25-7.25-7.25V29.83 M25.26,24.24c-1.27,0.43-2.19,1.63-2.19,3.05v22.16c0,6.21,5.03,11.25,11.25,11.25h3.37
		c1.79,0,3.24-1.45,3.24-3.24V30.07c0-2.24-1.21-4.18-3.01-5.21C36.24,26.02,34.2,26.7,32,26.7C29.43,26.7,27.08,25.78,25.26,24.24
		L25.26,24.24z"/>
</g>
<g>
	<path class="st0" d="M32,7.3c3.56,0,6.46,2.9,6.46,6.47c0,2.13-1.05,4.12-2.81,5.33c-1.07,0.74-2.33,1.13-3.65,1.13
		c-1.55,0-2.99-0.52-4.16-1.51c-1.46-1.24-2.3-3.04-2.3-4.95C25.54,10.2,28.44,7.3,32,7.3 M32,3.3c-5.78,0-10.46,4.69-10.46,10.47
		c0,3.21,1.45,6.08,3.72,8c1.82,1.54,4.17,2.46,6.74,2.46c2.2,0,4.24-0.68,5.92-1.84c2.74-1.88,4.54-5.04,4.54-8.62
		C42.46,7.99,37.78,3.3,32,3.3L32,3.3z"/>
</g>
</svg>
