<?xml version="1.0" encoding="utf-8"?>
<!-- Generator: Adobe Illustrator 24.1.1, SVG Export Plug-In . SVG Version: 6.00 Build 0)  -->
<svg version="1.1" id="Layer_1" xmlns="http://www.w3.org/2000/svg" xmlns:xlink="http://www.w3.org/1999/xlink" x="0px" y="0px"
	 viewBox="0 0 64 64" style="enable-background:new 0 0 64 64;" xml:space="preserve">
<style type="text/css">
	.st0{fill:#0566AF;}
</style>
<path class="st0" d="M40.93,30.07v27.39c0,1.79-1.45,3.24-3.24,3.24h-3.37c-6.22,0-11.25-5.04-11.25-11.25V27.29
	c0-1.42,0.92-2.62,2.19-3.05c1.82,1.54,4.17,2.46,6.74,2.46c2.2,0,4.24-0.68,5.92-1.84C39.72,25.89,40.93,27.83,40.93,30.07z"/>
<path class="st0" d="M42.46,13.77c0,3.58-1.8,6.74-4.54,8.62c-1.68,1.16-3.72,1.84-5.92,1.84c-2.57,0-4.92-0.92-6.74-2.46
	c-2.27-1.92-3.72-4.79-3.72-8C21.54,7.99,26.22,3.3,32,3.3C37.78,3.3,42.46,7.99,42.46,13.77z"/>
</svg>
