<?xml version="1.0" encoding="utf-8"?>
<!-- Generator: Adobe Illustrator 24.1.1, SVG Export Plug-In . SVG Version: 6.00 Build 0)  -->
<svg version="1.1" id="Layer_1" xmlns="http://www.w3.org/2000/svg" xmlns:xlink="http://www.w3.org/1999/xlink" x="0px" y="0px"
	 viewBox="0 0 64 64" style="enable-background:new 0 0 64 64;" xml:space="preserve">
<style type="text/css">
	.st0{fill:#1D1D1B;}
</style>
<path class="st0" d="M59,64c-1.3,0-2.6-0.5-3.5-1.5l-54-54c-2-2-2-5.1,0-7.1c2-2,5.1-2,7.1,0l54,54c2,2,2,5.1,0,7.1
	C61.6,63.5,60.3,64,59,64z"/>
<path class="st0" d="M5,64c-1.3,0-2.6-0.5-3.5-1.5c-2-2-2-5.1,0-7.1l54-54c2-2,5.1-2,7.1,0c2,2,2,5.1,0,7.1l-54,54
	C7.6,63.5,6.3,64,5,64z"/>
</svg>
