<?xml version="1.0" encoding="utf-8"?>
<!-- Generator: Adobe Illustrator 24.1.1, SVG Export Plug-In . SVG Version: 6.00 Build 0)  -->
<svg version="1.1" id="Layer_1" xmlns="http://www.w3.org/2000/svg" xmlns:xlink="http://www.w3.org/1999/xlink" x="0px" y="0px"
	 viewBox="0 0 64 64" style="enable-background:new 0 0 64 64;" xml:space="preserve">
<style type="text/css">
	.st0{fill:#777777;}
</style>
<g>
	<g>
		<path class="st0" d="M57.2,7.7H39.7v7h20.5v-4C60.2,9,58.9,7.7,57.2,7.7L57.2,7.7z"/>
	</g>
</g>
<g>
	<g>
		<polygon class="st0" points="60.2,18.5 39.7,18.5 39.7,25.5 60.2,25.5 60.2,18.5 		"/>
	</g>
</g>
<g>
	<g>
		<polygon class="st0" points="60.2,29.3 39.7,29.3 39.7,36.3 60.2,36.3 60.2,29.3 		"/>
	</g>
</g>
<g>
	<g>
		<polygon class="st0" points="60.2,40 3.8,40 3.8,47 60.2,47 60.2,40 		"/>
	</g>
</g>
<g>
	<g>
		<path class="st0" d="M60.2,50.8H3.8v4c0,1.7,1.3,3,3,3h50.4c1.6,0,3-1.3,3-3V50.8L60.2,50.8z"/>
	</g>
</g>
<g>
	<path class="st0" d="M21.6,11.8c1.5,0,2.7,1.2,2.7,2.6c0,1-0.5,1.7-1.1,2.1c-0.6,0.2-1.2,0.6-1.6,1.1c-0.3-0.4-0.8-0.7-1.3-0.9
		c-0.8-0.4-1.6-1.4-1.3-2.5l0,0l0,0c0.2-1,1-2,2-2.2l0,0l0,0C21.2,11.8,21.4,11.8,21.6,11.8 M21.7,23.2c0.5,0.5,1.2,0.9,1.9,1.1
		c0.4,0.1,0.7,0.1,1.2,0.1c1.4,0,2.8,1,4.7,5.7c0.3,0.7,0.5,1.5,0.7,2.2H13.1c0.2-0.8,0.4-1.6,0.7-2.3c1.4-3.3,3.3-5.5,4.7-5.5
		C19.9,24.5,20.9,24,21.7,23.2 M21.6,7.8c-0.5,0-0.9,0-1.4,0.1c-2.7,0.5-4.8,2.8-5.2,5.5c-0.5,2.9,1.1,5.6,3.5,6.8
		c0,0,0.6,0.3,0,0.3c-3.8,0-6.7,3.9-8.4,8c-0.8,1.9-1.3,4.1-1.5,6.3c0.2,0.8,0.8,1.3,1.6,1.5H33c0.8-0.2,1.4-0.8,1.6-1.5
		c-0.2-2.3-0.7-4.4-1.5-6.3c-1.7-4.1-3.9-8.1-8.4-8.1c-0.4,0-0.2-0.1,0-0.1c0,0,0,0,0,0c2.1-1.1,3.6-3.3,3.6-5.9
		C28.3,10.8,25.3,7.8,21.6,7.8L21.6,7.8z"/>
</g>
</svg>
