<?xml version="1.0" encoding="utf-8"?>
<!-- Generator: Adobe Illustrator 24.1.1, SVG Export Plug-In . SVG Version: 6.00 Build 0)  -->
<svg version="1.1" id="Layer_1" xmlns="http://www.w3.org/2000/svg" xmlns:xlink="http://www.w3.org/1999/xlink" x="0px" y="0px"
	 viewBox="0 0 64 64" style="enable-background:new 0 0 64 64;" xml:space="preserve">
<style type="text/css">
	.st0{fill:#0566AF;}
</style>
<g>
	<path class="st0" d="M60.2,14.7H39.7v-7h17.5c1.7,0,3,1.3,3,3L60.2,14.7L60.2,14.7z"/>
</g>
<g>
	<rect x="39.7" y="18.5" class="st0" width="20.5" height="7"/>
</g>
<g>
	<rect x="39.7" y="29.3" class="st0" width="20.5" height="7"/>
</g>
<g>
	<rect x="3.8" y="40" class="st0" width="56.4" height="7"/>
</g>
<g>
	<path class="st0" d="M57.2,57.8H6.8c-1.7,0-3-1.3-3-3v-4h56.4v4C60.2,56.5,58.8,57.8,57.2,57.8z"/>
</g>
<path class="st0" d="M24.7,20.4c4.5,0,6.7,4,8.4,8.1c0.8,1.9,1.3,4,1.5,6.3c0,0,0,0,0,0c-0.2,0.7-0.8,1.3-1.6,1.5H10.2
	c-0.8-0.2-1.4-0.7-1.6-1.5c0,0,0,0,0,0c0.2-2.2,0.7-4.4,1.5-6.3c1.7-4.1,4.6-8,8.4-8c0.6,0,0-0.3,0-0.3c-2.4-1.2-4-3.9-3.5-6.8
	c0.4-2.7,2.5-5,5.2-5.5c4.3-0.9,8.1,2.4,8.1,6.5c0,2.6-1.5,4.8-3.6,5.9C24.7,20.2,24.2,20.4,24.7,20.4z"/>
</svg>
