<?xml version="1.0" encoding="utf-8"?>
<!-- Generator: Adobe Illustrator 24.1.1, SVG Export Plug-In . SVG Version: 6.00 Build 0)  -->
<svg version="1.1" id="Layer_1" xmlns="http://www.w3.org/2000/svg" xmlns:xlink="http://www.w3.org/1999/xlink" x="0px" y="0px"
	 viewBox="0 0 64 64" style="enable-background:new 0 0 64 64;" xml:space="preserve">
<style type="text/css">
	.st0{fill:#0566AF;}
</style>
<path class="st0" d="M8.77,29.18v28.98c0,0.79,0.67,1.43,1.49,1.43h14.56c0.82,0,1.49-0.64,1.49-1.43V45.08
	c0-0.79,0.67-1.43,1.49-1.43h8.4c0.8,0,1.45,0.6,1.49,1.36c0,0.03,0,0.05,0,0.08v13.16c0.04,0.75,0.69,1.36,1.49,1.36h14.56
	c0.82,0,1.49-0.64,1.49-1.43V30.2v-2.01c0-0.28,0.22-0.5,0.5-0.5h3.16c1.44,0,2.05-1.84,0.9-2.7L32.9,4.82c-0.53-0.4-1.27-0.4-1.8,0
	L4.21,24.99c-1.15,0.86-0.54,2.7,0.9,2.7h3.16c0.28,0,0.5,0.22,0.5,0.5L8.77,29.18z"/>
</svg>
