<?xml version="1.0" encoding="utf-8"?>
<!-- Generator: Adobe Illustrator 24.1.1, SVG Export Plug-In . SVG Version: 6.00 Build 0)  -->
<svg version="1.1" id="Layer_1" xmlns="http://www.w3.org/2000/svg" xmlns:xlink="http://www.w3.org/1999/xlink" x="0px" y="0px"
	 viewBox="0 0 64 64" style="enable-background:new 0 0 64 64;" xml:space="preserve">
<style type="text/css">
	.st0{fill:#777777;}
</style>
<g>
	<path class="st0" d="M32,9.15l20.82,15.62c-0.97,0.83-1.59,2.06-1.59,3.43v2.01v25.4h-9.54V45.08v-0.08V44.9l-0.01-0.11
		c-0.15-2.89-2.56-5.15-5.48-5.15h-8.4c-3.03,0-5.49,2.44-5.49,5.43V55.6h-9.54V29.18v-0.99c0-1.37-0.62-2.6-1.59-3.43L32,9.15
		 M32,4.52c-0.32,0-0.64,0.1-0.9,0.3L4.21,24.99c-1.15,0.86-0.54,2.7,0.9,2.7h3.16c0.28,0,0.5,0.22,0.5,0.5v0.99v28.98
		c0,0.79,0.67,1.43,1.49,1.43h14.56c0.82,0,1.49-0.64,1.49-1.43V45.08c0-0.79,0.67-1.43,1.49-1.43h8.4c0.8,0,1.45,0.6,1.49,1.36
		c0,0.03,0,0.05,0,0.08v13.16c0.04,0.75,0.69,1.36,1.49,1.36h14.56c0.82,0,1.49-0.64,1.49-1.43V30.2v-2.01c0-0.28,0.22-0.5,0.5-0.5
		h3.16c1.44,0,2.05-1.84,0.9-2.7L32.9,4.82C32.63,4.62,32.32,4.52,32,4.52L32,4.52z"/>
</g>
</svg>
