<?xml version="1.0" encoding="utf-8"?>
<!-- Generator: Adobe Illustrator 24.1.1, SVG Export Plug-In . SVG Version: 6.00 Build 0)  -->
<svg version="1.1" id="Layer_1" xmlns="http://www.w3.org/2000/svg" xmlns:xlink="http://www.w3.org/1999/xlink" x="0px" y="0px"
	 viewBox="0 0 64 64" style="enable-background:new 0 0 64 64;" xml:space="preserve">
<style type="text/css">
	.st0{display:none;fill:#1D1D1B;}
	.st1{display:none;fill:#878787;}
	.st2{display:none;fill:none;}
	.st3{fill:#1D1D1B;}
	.st4{fill:#3C3C3B;}
	.st5{fill:#9D9D9C;}
</style>
<path class="st0" d="M2.9,45.3c0-6.1,12.7-4.3,14-6c2.9-4-6.9-11-5.5-20.2c0.8-4.8,4.2-7.9,8.6-12.1c3.6-3.4,7.1-6.6,11.7-6.5
	c3.5,0.1,6,2,9.3,4.5C44.8,8,49.9,12,51.3,18c2.1,9-6.3,14.2-3.5,19.9c2.7,5.5,11.8,3.2,13,7.1c1.7,5.3-12,18.6-27.6,19
	C21.7,64.4,2.9,57.3,2.9,45.3z"/>
<path class="st1" d="M11.8,56.9c0.1-2.1,11.9-4.5,14.1-1.1c0.4,0.7,0.2,1.3,1,2.1c1.4,1.6,3.2,0.7,4.6,2.2c1.1,1.2,1.3,3,0.5,3.6
	c-0.3,0.3-0.8,0.5-1.9,0.3c-3.2-0.5-2.2-0.2-4.2-0.6c-1.1-0.2-3-0.5-5.3-1.3c-1.9-0.7-3.4-1.1-4.5-1.7
	C13.1,58.8,11.8,57.5,11.8,56.9z"/>
<path class="st1" d="M34.1,63.8c-0.9-0.8-1.1-2.9-0.1-4.4c1.6-2.6,5.5-1.6,6.7-4.1c0.6-1.2-0.2-1.8,0.5-2.7c1.5-1.9,6.1-0.5,7.6,0
	c0.9,0.3,4.1,1.6,4.5,2.8c0.1,0.2,0.4,0.9-0.6,1.6c-1.7,1.3-2.6,1.8-3.2,2.1c-1.9,1-3.1,1.7-4.2,2.1c-2,0.8-1.7,0.7-5.2,1.8
	C36.3,64.1,34.7,64.3,34.1,63.8z"/>
<path class="st1" d="M74.2,53.3"/>
<path class="st2" d="M17.5,59.1"/>
<path class="st3" d="M59.5,53c-1.1,3-4.1,5-7.7,6.3c-3,1.1-6.4,1.8-9.6,2.1c0,0,0,0,0,0c-2,0.2-3.9,0.4-5.5,0.4c0,0-0.1,0-0.1,0
	C34.5,62,32.9,62,32,62c-0.4,0-0.9,0-1.5,0h-0.3c-1.6,0-3.9-0.1-6.5-0.3c-0.1,0-0.1,0-0.2,0c-2.5-0.2-5.3-0.6-7.9-1.3
	c0,0-0.1,0-0.1,0c-0.9-0.2-1.8-0.5-2.7-0.8c-4-1.3-7.3-3.4-8.5-6.6c-0.2-0.5-1.1-3,0-5c2.6-4.6,13.2-0.3,15.7-4
	c2.7-4-7.6-10.8-7.5-21C12.6,13.9,20.9,2.1,32,2c11.2-0.1,19.7,11.9,19.8,21c0.1,10.2-10.4,17.1-7.8,21c2.5,3.7,12.9-0.6,15.5,4
	C60.6,50,59.7,52.5,59.5,53z"/>
<path class="st4" d="M32,8c7.9-0.1,13.8,7.6,13.8,15S39.9,38.1,32,38c-7.8-0.1-13.5-7.7-13.5-15S24.2,8.1,32,8z"/>
<image style="display:none;overflow:visible;" width="500" height="500" xlink:href="userphoto_default.png"  transform="matrix(0.128 0 0 0.128 0 0)">
</image>
<path class="st5" d="M32.5,60.7c-0.1,0.8-0.8,1-1.6,1.2c-0.1,0-0.2,0-0.4,0.1h-0.3c-1.6,0-3.9-0.1-6.5-0.3c-0.1,0-0.1,0-0.2,0
	c-2.5-0.2-5.3-0.6-7.9-1.3c0,0-0.1,0-0.1,0c-0.9-0.2-1.8-0.5-2.7-0.8c-0.2-0.1-0.3-0.2-0.3-0.2C10.3,56.7,23.6,50.7,26,53
	c0.5,0.5,0.2,1,1,2c1.6,2,3.9,1.4,5,3C32.5,58.8,32.6,59.8,32.5,60.7z"/>
<path class="st5" d="M51.8,59.3c-3,1.1-6.4,1.8-9.6,2.1c0,0,0,0,0,0c-2,0.2-3.9,0.4-5.5,0.4c0,0-0.1,0-0.1,0c-0.4,0-0.7,0-1.1,0
	c-0.8,0-1.4-0.5-1.6-1.2c-0.1-0.9,0-2,0.5-2.7c1.1-1.6,3.4-1,5-3c0.8-1,0.5-1.5,1-2C42.8,50.7,53.8,56.6,51.8,59.3z"/>
</svg>
