<?xml version="1.0" encoding="utf-8"?>
<!-- Generator: Adobe Illustrator 24.1.1, SVG Export Plug-In . SVG Version: 6.00 Build 0)  -->
<svg version="1.1" id="Layer_1" xmlns="http://www.w3.org/2000/svg" xmlns:xlink="http://www.w3.org/1999/xlink" x="0px" y="0px"
	 viewBox="0 0 64 64" style="enable-background:new 0 0 64 64;" xml:space="preserve">
<style type="text/css">
	.st0{fill:#777777;}
</style>
<g>
	<path class="st0" d="M32,6c14.3,0,26,11.7,26,26S46.3,58,32,58S6,46.3,6,32S17.7,6,32,6 M32,2C15.4,2,2,15.4,2,32s13.4,30,30,30
		s30-13.4,30-30S48.6,2,32,2L32,2z"/>
</g>
<g>
	<path class="st0" d="M32,17L32,17C32,17,32,17,32,17 M32,11c-3.3,0-6,2.7-6,6c0,3.3,2.7,6,6,6s6-2.7,6-6C38,13.7,35.3,11,32,11
		L32,11z"/>
</g>
<g>
	<path class="st0" d="M32,32L32,32C32,32,32,32,32,32 M32,26c-3.3,0-6,2.7-6,6s2.7,6,6,6s6-2.7,6-6S35.3,26,32,26L32,26z"/>
</g>
<g>
	<path class="st0" d="M32,41c-3.3,0-6,2.7-6,6s2.7,6,6,6s6-2.7,6-6S35.3,41,32,41L32,41z"/>
</g>
</svg>
