<?xml version="1.0" encoding="utf-8"?>
<!-- Generator: Adobe Illustrator 24.1.1, SVG Export Plug-In . SVG Version: 6.00 Build 0)  -->
<svg version="1.1" id="Layer_1" xmlns="http://www.w3.org/2000/svg" xmlns:xlink="http://www.w3.org/1999/xlink" x="0px" y="0px"
	 viewBox="0 0 64 64" style="enable-background:new 0 0 64 64;" xml:space="preserve">
<style type="text/css">
	.st0{fill:#777777;}
</style>
<g>
	<path class="st0" d="M32,12.2l1.7,0.2c7.2,0.8,12.4,6.7,12.4,14v8.1c0,4.2,2.1,8,5.6,10.3l1.8,1.2c0.4,0.3,0.5,0.6,0.4,1.1
		c-0.1,0.3-0.3,0.7-1,0.7l-15.5,0h-3.2V51c0,1.9-1.6,2.9-3.3,2.9c-1.6,0-3.3-1-3.3-2.9v-3.2h-3.2H11.1c-0.7,0-0.9-0.4-1-0.7
		c-0.2-0.6,0.3-0.9,0.4-1l1.8-1.2c3.5-2.3,5.6-6.1,5.6-10.3v-8c0-7.3,5.2-13.2,12.4-14.1L32,12.2 M32,6.9c-1.2,0-2.1,1.1-2.1,2.3
		c-8.8,1-15.3,8.4-15.3,17.3v8c0,3-1.6,5.9-4.1,7.6l-1.8,1.2C5.2,45.6,6.9,51,11.1,51h13.3c0,3.5,2.9,6.1,6.5,6.1s6.5-2.5,6.5-6.1
		l15.5,0c4.2,0,5.9-5.4,2.4-7.7l-1.8-1.2c-2.6-1.7-4.1-4.5-4.1-7.6v-8.1c0-9-6.4-16.2-15.2-17.2C34.1,8.1,33.2,6.9,32,6.9L32,6.9z"
		/>
</g>
</svg>
