<?xml version="1.0" encoding="utf-8"?>
<!-- Generator: Adobe Illustrator 24.1.1, SVG Export Plug-In . SVG Version: 6.00 Build 0)  -->
<svg version="1.1" id="Layer_1" xmlns="http://www.w3.org/2000/svg" xmlns:xlink="http://www.w3.org/1999/xlink" x="0px" y="0px"
	 viewBox="0 0 64 64" style="enable-background:new 0 0 64 64;" xml:space="preserve">
<style type="text/css">
	.st0{fill:#0566AF;}
</style>
<g>
	<path class="st0" d="M30.9,57.1c3.6,0,6.5-2.5,6.5-6.1l15.5,0c4.2,0,5.9-5.4,2.4-7.7l-1.8-1.2c-2.6-1.7-4.1-4.5-4.1-7.6v-8.1
		c0-9-6.4-16.2-15.2-17.2l0,0c0-1.2-1-2.3-2.1-2.3c-1.2,0-2.1,1.1-2.1,2.3l0,0c-8.8,1-15.3,8.4-15.3,17.3v8c0,3-1.6,5.9-4.1,7.6
		l-1.8,1.2C5.2,45.6,6.9,51,11.1,51h13.3C24.4,54.5,27.4,57.1,30.9,57.1z"/>
</g>
</svg>
