<?xml version="1.0" encoding="utf-8"?>
<!-- Generator: Adobe Illustrator 24.1.1, SVG Export Plug-In . SVG Version: 6.00 Build 0)  -->
<svg version="1.1" id="Layer_1" xmlns="http://www.w3.org/2000/svg" xmlns:xlink="http://www.w3.org/1999/xlink" x="0px" y="0px"
	 viewBox="0 0 64 64" style="enable-background:new 0 0 64 64;" xml:space="preserve">
<style type="text/css">
	.st0{fill:#777777;}
	.st1{fill:none;stroke:#777777;stroke-width:2;stroke-linecap:round;stroke-miterlimit:10;}
</style>
<g>
	<path class="st0" d="M32,6c14.3,0,26,11.7,26,26S46.3,58,32,58S6,46.3,6,32S17.7,6,32,6 M32,2C15.4,2,2,15.4,2,32s13.4,30,30,30
		s30-13.4,30-30S48.6,2,32,2L32,2z"/>
</g>
<g>
	<circle class="st0" cx="20" cy="22" r="3"/>
	<path class="st0" d="M20,21c0.6,0,1,0.4,1,1s-0.4,1-1,1s-1-0.4-1-1S19.4,21,20,21 M20,17c-2.8,0-5,2.2-5,5s2.2,5,5,5s5-2.2,5-5
		S22.8,17,20,17L20,17z"/>
</g>
<g>
	<g>
		<line class="st1" x1="44" y1="18" x2="44" y2="26"/>
	</g>
	<g>
		<line class="st1" x1="48" y1="22" x2="40" y2="22"/>
	</g>
</g>
<path class="st0" d="M15,36.8h33c-0.2,9.2-7.5,16.5-16.5,16.5C22.5,53.3,15.2,45.9,15,36.8z"/>
</svg>
