<?xml version="1.0" encoding="utf-8"?>
<!-- Generator: Adobe Illustrator 24.1.1, SVG Export Plug-In . SVG Version: 6.00 Build 0)  -->
<svg version="1.1" id="Layer_1" xmlns="http://www.w3.org/2000/svg" xmlns:xlink="http://www.w3.org/1999/xlink" x="0px" y="0px"
	 viewBox="0 0 64 64" style="enable-background:new 0 0 64 64;" xml:space="preserve">
<style type="text/css">
	.st0{fill:#0566AF;}
</style>
<g>
	<path class="st0" d="M21.8,8.88l3.45,6.99c0.22,0.44,0.64,0.75,1.13,0.82l7.72,1.13c1.23,0.18,1.72,1.69,0.83,2.56l-5.58,5.44
		c-0.35,0.34-0.51,0.84-0.43,1.33l1.31,7.68c0.21,1.23-1.08,2.16-2.18,1.58l-6.89-3.63c-0.44-0.23-0.96-0.23-1.4,0l-6.9,3.63
		c-1.1,0.58-2.39-0.36-2.18-1.58L12,27.15c0.08-0.49-0.08-0.98-0.43-1.33l-5.58-5.44c-0.89-0.87-0.4-2.38,0.83-2.56l7.72-1.13
		c0.49-0.07,0.91-0.38,1.13-0.82l3.46-6.99C19.66,7.77,21.25,7.77,21.8,8.88z"/>
</g>
<g>
	<path class="st0" d="M60.19,14.73H39.65V7.7h17.53c1.66,0,3,1.34,3,3L60.19,14.73L60.19,14.73z"/>
</g>
<g>
	<rect x="39.65" y="18.48" class="st0" width="20.53" height="7.03"/>
</g>
<g>
	<rect x="39.65" y="29.25" class="st0" width="20.53" height="7.03"/>
</g>
<g>
	<rect x="3.81" y="40.03" class="st0" width="56.38" height="7.03"/>
</g>
<g>
	<path class="st0" d="M57.19,57.84H6.81c-1.66,0-3-1.34-3-3V50.8h56.38v4.03C60.19,56.49,58.84,57.84,57.19,57.84z"/>
</g>
</svg>
