<?xml version="1.0" encoding="utf-8"?>
<!-- Generator: Adobe Illustrator 24.1.1, SVG Export Plug-In . SVG Version: 6.00 Build 0)  -->
<svg version="1.1" id="Layer_1" xmlns="http://www.w3.org/2000/svg" xmlns:xlink="http://www.w3.org/1999/xlink" x="0px" y="0px"
	 viewBox="0 0 64 64" style="enable-background:new 0 0 64 64;" xml:space="preserve">
<style type="text/css">
	.st0{fill:#777777;}
</style>
<g>
	<path class="st0" d="M20.46,15.19l1.21,2.45c0.8,1.62,2.35,2.75,4.14,3.01l2.71,0.4l-1.96,1.91c-1.3,1.26-1.89,3.08-1.58,4.87
		l0.46,2.68l-2.41-1.27c-0.79-0.41-1.67-0.63-2.56-0.63c-0.89,0-1.77,0.22-2.56,0.63l-2.42,1.27l0.46-2.69
		c0.31-1.78-0.29-3.6-1.58-4.87l-1.96-1.91l2.71-0.4c1.79-0.26,3.33-1.38,4.14-3.01L20.46,15.19 M20.46,8.05
		c-0.53,0-1.07,0.28-1.34,0.84l-3.46,6.99c-0.22,0.44-0.64,0.75-1.13,0.82l-7.72,1.13C5.58,18,5.09,19.51,5.98,20.38l5.58,5.44
		c0.35,0.34,0.51,0.84,0.43,1.33l-1.31,7.68c-0.17,0.97,0.6,1.76,1.48,1.76c0.23,0,0.47-0.05,0.7-0.18l6.9-3.63
		c0.22-0.11,0.46-0.17,0.7-0.17c0.24,0,0.48,0.06,0.7,0.17l6.89,3.63c0.23,0.12,0.47,0.18,0.7,0.18c0.87,0,1.64-0.79,1.48-1.76
		l-1.31-7.68c-0.08-0.49,0.08-0.98,0.43-1.33l5.58-5.44c0.89-0.87,0.4-2.38-0.83-2.56l-7.72-1.13c-0.49-0.07-0.91-0.38-1.13-0.82
		L21.8,8.88C21.53,8.33,20.99,8.05,20.46,8.05L20.46,8.05z"/>
</g>
<g>
	<path class="st0" d="M57.18,7.7H39.65v7.03h20.54h-0.01V10.7C60.18,9.04,58.84,7.7,57.18,7.7L57.18,7.7z"/>
</g>
<g>
	<polygon class="st0" points="60.18,18.48 39.65,18.48 39.65,25.51 60.18,25.51 60.18,18.48 	"/>
</g>
<g>
	<polygon class="st0" points="60.18,29.25 39.65,29.25 39.65,36.28 60.18,36.28 60.18,29.25 	"/>
</g>
<g>
	<polygon class="st0" points="60.19,40.03 3.81,40.03 3.81,47.06 60.19,47.06 60.19,40.03 	"/>
</g>
<g>
	<path class="st0" d="M60.19,50.8H3.81v4.04c0,1.66,1.34,3,3,3h50.38c1.65,0,3-1.35,3-3.01V50.8L60.19,50.8z"/>
</g>
</svg>
