<?xml version="1.0" encoding="utf-8"?>
<!-- Generator: Adobe Illustrator 24.1.1, SVG Export Plug-In . SVG Version: 6.00 Build 0)  -->
<svg version="1.1" id="Layer_1" xmlns="http://www.w3.org/2000/svg" xmlns:xlink="http://www.w3.org/1999/xlink" x="0px" y="0px"
	 viewBox="0 0 64 64" style="enable-background:new 0 0 64 64;" xml:space="preserve">
<style type="text/css">
	.st0{fill:#0566AF;}
</style>
<path class="st0" d="M58.54,55.95L42.15,39.56c-1.58-1.58-1.92-4.02-0.83-5.96c2-3.54,2.92-7.77,2.31-12.24
	c-1.2-8.81-8.43-15.78-17.27-16.68C14.04,3.41,3.71,13.7,4.91,26.02c0.88,8.99,8.04,16.32,17.01,17.41
	c4.14,0.5,8.06-0.32,11.41-2.09c1.93-1.01,4.29-0.64,5.83,0.9l16.61,16.61c0.39,0.39,0.9,0.59,1.41,0.59c0.65,0,1.3-0.32,1.7-0.95
	C59.41,57.69,59.21,56.62,58.54,55.95z"/>
</svg>
