<?xml version="1.0" encoding="utf-8"?>
<!-- Generator: Adobe Illustrator 24.1.1, SVG Export Plug-In . SVG Version: 6.00 Build 0)  -->
<svg version="1.1" id="Layer_1" xmlns="http://www.w3.org/2000/svg" xmlns:xlink="http://www.w3.org/1999/xlink" x="0px" y="0px"
	 viewBox="0 0 64 64" style="enable-background:new 0 0 64 64;" xml:space="preserve">
<style type="text/css">
	.st0{fill:#777777;}
</style>
<g>
	<path class="st0" d="M24.32,8.57c0.54,0,1.09,0.03,1.64,0.08c7,0.72,12.77,6.29,13.71,13.24c0.46,3.42-0.17,6.78-1.84,9.74
		c-0.91,1.62-1.27,3.44-1.11,5.2c-0.36-0.04-0.72-0.07-1.09-0.07c-1.44,0-2.88,0.36-4.16,1.03c-2.23,1.17-4.64,1.77-7.16,1.77
		c-0.63,0-1.28-0.04-1.91-0.12c-7.13-0.86-12.81-6.67-13.51-13.82c-0.43-4.43,0.97-8.68,3.94-11.96
		C15.78,10.42,19.96,8.57,24.32,8.57 M24.32,4.57c-11.4,0-20.54,9.82-19.4,21.45c0.88,8.99,8.04,16.32,17.01,17.41
		c0.81,0.1,1.61,0.14,2.39,0.14c3.26,0,6.32-0.81,9.02-2.23c0.73-0.38,1.51-0.57,2.3-0.57c1.29,0,2.57,0.51,3.53,1.47l16.61,16.61
		c0.39,0.39,0.9,0.59,1.41,0.59c0.65,0,1.3-0.32,1.7-0.95c0.51-0.8,0.31-1.87-0.36-2.54L42.15,39.56c-1.58-1.58-1.92-4.02-0.83-5.96
		c2-3.54,2.92-7.77,2.31-12.24c-1.2-8.81-8.43-15.78-17.27-16.68C25.67,4.6,24.99,4.57,24.32,4.57L24.32,4.57z"/>
</g>
</svg>
