<?xml version="1.0" encoding="utf-8"?>
<!-- Generator: Adobe Illustrator 24.1.1, SVG Export Plug-In . SVG Version: 6.00 Build 0)  -->
<svg version="1.1" id="Layer_1" xmlns="http://www.w3.org/2000/svg" xmlns:xlink="http://www.w3.org/1999/xlink" x="0px" y="0px"
	 viewBox="0 0 64 64" style="enable-background:new 0 0 64 64;" xml:space="preserve">
<style type="text/css">
	.st0{fill:#0566AF;}
</style>
<g>
	<g>
		<path class="st0" d="M54.2,49.4c0,0.2,0,0.3-0.1,0.5c-0.2,0.2-0.3,0.5-0.5,0.7c-3,3.9-10.5,6.5-19.8,6.5c-9.3,0-16.9-2.6-19.8-6.5
			c-0.1-0.2-0.3-0.4-0.4-0.6c-0.1-0.2-0.1-0.3-0.1-0.5c0-0.9,0.7-1.5,1.5-1.5c0.4,0,0.8,0.2,1.1,0.4c0,0,0,0,0,0
			c0.1,0.2,0.2,0.3,0.3,0.5c2.2,2.8,8.7,5.3,17.3,5.3c8.7,0,15.3-2.5,17.4-5.4l0,0c0.1-0.1,0.2-0.2,0.2-0.4c0.3-0.3,0.7-0.5,1.1-0.5
			c0.4,0,0.8,0.2,1.1,0.4c0,0,0,0,0,0c0.1,0.1,0.3,0.3,0.3,0.5C54.2,48.9,54.2,49.2,54.2,49.4z"/>
	</g>
	<g>
		<path class="st0" d="M50,26.4c4.5,0,6.8,4.1,8.6,8.3c0.8,2,1.4,4.1,1.5,6.4c0,0,0,0,0,0c-0.2,0.8-0.8,1.3-1.6,1.5H35.2
			c-0.8-0.2-1.4-0.8-1.6-1.5c0,0,0,0,0,0c0.2-2.3,0.7-4.5,1.5-6.4c1.8-4.2,4.7-8.3,8.6-8.3c0.7,0,0-0.3,0-0.3
			c-2.2-1.1-3.7-3.4-3.7-6c0-3.8,3-6.8,6.8-6.8s6.8,3.1,6.8,6.8c0,2.6-1.5,4.9-3.7,6C50,26.2,49.5,26.4,50,26.4z"/>
	</g>
	<g>
		<path class="st0" d="M20.2,26.4c4.5,0,6.8,4.1,8.6,8.3c0.8,2,1.4,4.1,1.5,6.4c0,0,0,0,0,0c-0.2,0.8-0.8,1.3-1.6,1.5H5.4
			C4.6,42.5,4,42,3.8,41.2c0,0,0,0,0,0c0.2-2.3,0.7-4.5,1.5-6.4c1.8-4.2,4.7-8.3,8.6-8.3c0.6,0,0-0.3,0-0.3c-2.2-1.1-3.7-3.4-3.7-6
			c0-3.8,3.1-6.8,6.8-6.8s6.8,3.1,6.8,6.8c0,2.6-1.5,4.9-3.7,6C20.2,26.2,19.7,26.4,20.2,26.4z"/>
	</g>
	<g>
		<path class="st0" d="M27.7,15L27.7,15c0,0.1,0,0.1,0,0.2c0,0.1,0,0.1,0,0.1c-0.1,0.3-0.4,0.5-0.8,0.5h0c-0.3,0-0.6-0.2-0.7-0.5
			c0-0.1,0-0.1-0.1-0.2c0,0,0,0,0,0c-1-2.9-4.4-5.6-9-5.6c-4.6,0-8,2.7-9,5.6c0,0.1,0,0.1-0.1,0.1c-0.1,0.3-0.5,0.5-0.8,0.5
			c-0.4,0-0.8-0.4-0.8-0.9c0-0.1,0.1-0.2,0.1-0.4c0,0,0,0,0,0c1-4.7,5.2-8,10.6-8c5.4,0,9.6,3.3,10.6,8c0,0,0,0,0,0
			C27.7,14.8,27.7,14.9,27.7,15z"/>
	</g>
	<g>
		<path class="st0" d="M57.6,15.3L57.6,15.3c0,0.1,0,0.1,0,0.2c0,0.1,0,0.1,0,0.1c-0.1,0.3-0.4,0.5-0.8,0.5h0
			c-0.3,0-0.6-0.2-0.7-0.5c0-0.1,0-0.1-0.1-0.2c0,0,0,0,0,0c-1-2.9-4.4-5.6-9-5.6c-4.6,0-8,2.7-9,5.6c0,0.1,0,0.1,0,0.1
			c-0.2,0.3-0.5,0.5-0.8,0.5c-0.5,0-0.8-0.4-0.8-0.9c0-0.1,0-0.2,0.1-0.4c0,0,0,0,0,0c1-4.7,5.2-8,10.6-8c5.3,0,9.6,3.3,10.6,8
			c0,0,0,0,0,0C57.5,15,57.6,15.2,57.6,15.3z"/>
	</g>
</g>
</svg>
