<?xml version="1.0" encoding="utf-8"?>
<!-- Generator: Adobe Illustrator 24.1.1, SVG Export Plug-In . SVG Version: 6.00 Build 0)  -->
<svg version="1.1" id="Layer_1" xmlns="http://www.w3.org/2000/svg" xmlns:xlink="http://www.w3.org/1999/xlink" x="0px" y="0px"
	 viewBox="0 0 64 64" style="enable-background:new 0 0 64 64;" xml:space="preserve">
<style type="text/css">
	.st0{fill:#777777;}
</style>
<g>
	<g>
		<path class="st0" d="M52.7,47.8c-0.5,0-0.9,0.2-1.1,0.5c-0.1,0.1-0.2,0.2-0.2,0.4l0,0c-2.1,2.8-8.7,5.4-17.4,5.4
			c-8.6,0-15.2-2.5-17.4-5.3c-0.1-0.2-0.2-0.3-0.3-0.5c0,0,0,0,0,0c-0.3-0.3-0.7-0.4-1.1-0.4c-0.9,0-1.5,0.7-1.5,1.5
			c0,0.2,0,0.4,0.1,0.5c0.1,0.2,0.3,0.4,0.4,0.6C17,54.4,24.6,57,33.9,57c9.3,0,16.8-2.6,19.8-6.5c0.2-0.2,0.3-0.5,0.5-0.7
			c0-0.2,0.1-0.3,0.1-0.5c0-0.2,0-0.4-0.1-0.6c-0.1-0.2-0.2-0.3-0.3-0.5c0,0,0,0,0,0C53.5,48,53.1,47.8,52.7,47.8L52.7,47.8z"/>
	</g>
	<g>
		<path class="st0" d="M46.9,17.3c1.5,0,2.8,1.3,2.8,2.8c0,1-0.6,2-1.5,2.5c-0.5,0.3-1,0.6-1.3,1c-0.4-0.4-0.8-0.7-1.4-1
			c-0.9-0.5-1.5-1.4-1.5-2.5C44.1,18.6,45.4,17.3,46.9,17.3 M47,29.2c0.7,0.7,1.7,1.2,3.1,1.2c1.5,0,2.9,1,4.9,5.9
			c0.3,0.8,0.6,1.6,0.8,2.4H38.1c0.2-0.8,0.5-1.6,0.8-2.4c1.5-3.5,3.4-5.8,4.9-5.8C45.2,30.5,46.2,29.9,47,29.2 M46.9,13.3
			c-3.8,0-6.8,3-6.8,6.8c0,2.6,1.5,4.9,3.7,6c0,0,0.6,0.3,0,0.3c-3.9,0-6.8,4-8.6,8.3c-0.8,2-1.4,4.1-1.5,6.4c0,0,0,0,0,0
			c0.2,0.8,0.8,1.3,1.6,1.5h23.4c0.8-0.2,1.4-0.8,1.6-1.5c0,0,0,0,0,0c-0.2-2.3-0.7-4.5-1.5-6.4c-1.8-4.2-4.1-8.3-8.6-8.3
			c-0.5,0,0-0.3,0-0.3c2.2-1.1,3.7-3.4,3.7-6C53.7,16.4,50.7,13.3,46.9,13.3L46.9,13.3z"/>
	</g>
	<g>
		<path class="st0" d="M17.1,17.3c1.5,0,2.8,1.3,2.8,2.8c0,1-0.6,2-1.5,2.5c-0.5,0.3-1,0.6-1.3,1c-0.4-0.4-0.8-0.7-1.4-1
			c-0.9-0.5-1.5-1.4-1.5-2.5C14.3,18.6,15.5,17.3,17.1,17.3 M17.1,29.2c0.7,0.7,1.7,1.2,3.1,1.2c1.5,0,2.9,1,4.9,5.9
			c0.3,0.8,0.6,1.6,0.8,2.4H8.2c0.2-0.8,0.5-1.6,0.8-2.4c1.5-3.5,3.4-5.8,4.9-5.8C15.3,30.5,16.4,29.9,17.1,29.2 M17.1,13.3
			c-3.8,0-6.8,3-6.8,6.8c0,2.6,1.5,4.9,3.7,6c0,0,0.7,0.3,0,0.3c-3.9,0-6.8,4-8.6,8.3c-0.8,2-1.4,4.1-1.5,6.4c0,0,0,0,0,0
			C4,42,4.6,42.5,5.4,42.7h23.4c0.8-0.2,1.4-0.8,1.6-1.5c0,0,0,0,0,0c-0.2-2.3-0.7-4.5-1.5-6.4c-1.8-4.2-4.1-8.3-8.6-8.3
			c-0.5,0,0-0.3,0-0.3c2.2-1.1,3.7-3.4,3.7-6C23.9,16.4,20.8,13.3,17.1,13.3L17.1,13.3z"/>
	</g>
	<g>
		<path class="st0" d="M17.1,6.6c-5.3,0-9.6,3.3-10.6,8c0,0,0,0,0,0c0,0.1,0,0.2-0.1,0.4c0,0.5,0.3,0.8,0.8,0.8c0,0,0,0,0,0
			c0.3,0,0.6-0.2,0.8-0.5c0,0,0-0.1,0.1-0.1c1-2.9,4.4-5.6,9-5.6c4.5,0,8,2.7,9,5.5c0,0,0,0,0,0c0,0.1,0.1,0.1,0.1,0.2
			c0.1,0.3,0.4,0.5,0.7,0.5h0c0.3,0,0.6-0.2,0.8-0.5c0-0.1,0-0.1,0-0.2c0-0.1,0-0.1,0-0.2v0c0-0.1,0-0.2-0.1-0.3c0,0,0,0,0,0
			C26.7,9.9,22.4,6.6,17.1,6.6L17.1,6.6z"/>
	</g>
	<g>
		<path class="st0" d="M46.9,6.9c-5.3,0-9.5,3.3-10.6,8c0,0,0,0,0,0c0,0.1,0,0.2-0.1,0.4c0,0.5,0.3,0.8,0.8,0.8c0,0,0,0,0,0
			c0.3,0,0.6-0.2,0.8-0.5c0,0,0-0.1,0-0.1c1-2.9,4.4-5.6,9-5.6c4.5,0,8,2.7,9,5.5c0,0,0,0,0,0c0,0.1,0.1,0.1,0.1,0.2
			c0.1,0.3,0.4,0.5,0.7,0.5h0.1c0.3,0,0.6-0.2,0.8-0.5c0-0.1,0-0.1,0-0.2c0-0.1,0-0.1,0-0.2v0c0-0.1,0-0.2-0.1-0.3c0,0,0,0,0,0
			C56.5,10.2,52.3,6.9,46.9,6.9L46.9,6.9z"/>
	</g>
</g>
</svg>
